<mxfile host="app.diagrams.net" agent="Mozilla/5.0 (Windows NT 10.0; Win64; x64) AppleWebKit/537.36 (KHTML, like Gecko) Chrome/109.0.0.0 Safari/537.36" version="24.7.17">
  <diagram name="Halaman-1" id="uQRjAqrkMJodC3sS2g7s">
    <mxGraphModel dx="880" dy="427" grid="1" gridSize="10" guides="1" tooltips="1" connect="1" arrows="1" fold="1" page="1" pageScale="1" pageWidth="827" pageHeight="1169" math="0" shadow="0">
      <root>
        <mxCell id="0" />
        <mxCell id="1" parent="0" />
        <mxCell id="jgSMeut3w0m6DSdT4a3m-1" value="mahasiswa" style="swimlane;fontStyle=1;align=center;verticalAlign=top;childLayout=stackLayout;horizontal=1;startSize=26;horizontalStack=0;resizeParent=1;resizeParentMax=0;resizeLast=0;collapsible=1;marginBottom=0;whiteSpace=wrap;html=1;" vertex="1" parent="1">
          <mxGeometry x="240" y="90" width="330" height="190" as="geometry" />
        </mxCell>
        <mxCell id="jgSMeut3w0m6DSdT4a3m-2" value="nama: string&amp;nbsp;&lt;div&gt;nim: string&amp;nbsp;&lt;br&gt;jurusan: string&amp;nbsp;&lt;br&gt;&amp;nbsp;ipk: float  &lt;/div&gt;" style="text;strokeColor=none;fillColor=none;align=left;verticalAlign=top;spacingLeft=4;spacingRight=4;overflow=hidden;rotatable=0;points=[[0,0.5],[1,0.5]];portConstraint=eastwest;whiteSpace=wrap;html=1;" vertex="1" parent="jgSMeut3w0m6DSdT4a3m-1">
          <mxGeometry y="26" width="330" height="94" as="geometry" />
        </mxCell>
        <mxCell id="jgSMeut3w0m6DSdT4a3m-3" value="" style="line;strokeWidth=1;fillColor=none;align=left;verticalAlign=middle;spacingTop=-1;spacingLeft=3;spacingRight=3;rotatable=0;labelPosition=right;points=[];portConstraint=eastwest;strokeColor=inherit;" vertex="1" parent="jgSMeut3w0m6DSdT4a3m-1">
          <mxGeometry y="120" width="330" height="8" as="geometry" />
        </mxCell>
        <mxCell id="jgSMeut3w0m6DSdT4a3m-4" value="construct(nama, nim, jurusan, ipk)&lt;div&gt;&amp;nbsp; tampilkanData() void&lt;/div&gt;&lt;div&gt;&amp;nbsp;statusKelulusan() string&lt;/div&gt;" style="text;strokeColor=none;fillColor=none;align=left;verticalAlign=top;spacingLeft=4;spacingRight=4;overflow=hidden;rotatable=0;points=[[0,0.5],[1,0.5]];portConstraint=eastwest;whiteSpace=wrap;html=1;" vertex="1" parent="jgSMeut3w0m6DSdT4a3m-1">
          <mxGeometry y="128" width="330" height="62" as="geometry" />
        </mxCell>
        <mxCell id="jgSMeut3w0m6DSdT4a3m-5" value="mahasiswa1" style="swimlane;fontStyle=1;align=center;verticalAlign=top;childLayout=stackLayout;horizontal=1;startSize=26;horizontalStack=0;resizeParent=1;resizeParentMax=0;resizeLast=0;collapsible=1;marginBottom=0;whiteSpace=wrap;html=1;" vertex="1" parent="1">
          <mxGeometry x="80" y="380" width="250" height="100" as="geometry" />
        </mxCell>
        <mxCell id="jgSMeut3w0m6DSdT4a3m-6" value="nama: &quot;noval nur setiawan&quot;&lt;div&gt;nim: &quot;232400068&quot;&lt;br&gt;&lt;/div&gt;&lt;div&gt;jurusan: &quot;Informatika&quot;&amp;nbsp;&amp;nbsp;&lt;br&gt;&lt;/div&gt;&lt;div&gt;ipk: 4.0&amp;nbsp;&lt;br&gt;&lt;/div&gt;" style="text;strokeColor=none;fillColor=none;align=left;verticalAlign=top;spacingLeft=4;spacingRight=4;overflow=hidden;rotatable=0;points=[[0,0.5],[1,0.5]];portConstraint=eastwest;whiteSpace=wrap;html=1;" vertex="1" parent="jgSMeut3w0m6DSdT4a3m-5">
          <mxGeometry y="26" width="250" height="74" as="geometry" />
        </mxCell>
        <mxCell id="jgSMeut3w0m6DSdT4a3m-9" value="mahasiswa1" style="swimlane;fontStyle=1;align=center;verticalAlign=top;childLayout=stackLayout;horizontal=1;startSize=26;horizontalStack=0;resizeParent=1;resizeParentMax=0;resizeLast=0;collapsible=1;marginBottom=0;whiteSpace=wrap;html=1;" vertex="1" parent="1">
          <mxGeometry x="440" y="380" width="250" height="100" as="geometry" />
        </mxCell>
        <mxCell id="jgSMeut3w0m6DSdT4a3m-10" value="nama: &quot;Aisyah&quot;&lt;div&gt;nim: &quot;&lt;span style=&quot;font-family: Consolas, &amp;quot;Courier New&amp;quot;, monospace; font-size: 14px; white-space: pre; background-color: rgb(255, 255, 255);&quot;&gt;232400090&lt;/span&gt;&lt;span style=&quot;background-color: initial;&quot;&gt;&quot;&lt;/span&gt;&lt;br&gt;&lt;/div&gt;&lt;div&gt;jurusan: &quot;Sistem Informasi&quot;&amp;nbsp;&amp;nbsp;&lt;br&gt;&lt;/div&gt;&lt;div&gt;ipk: 2.8&lt;br&gt;&lt;/div&gt;" style="text;strokeColor=none;fillColor=none;align=left;verticalAlign=top;spacingLeft=4;spacingRight=4;overflow=hidden;rotatable=0;points=[[0,0.5],[1,0.5]];portConstraint=eastwest;whiteSpace=wrap;html=1;" vertex="1" parent="jgSMeut3w0m6DSdT4a3m-9">
          <mxGeometry y="26" width="250" height="74" as="geometry" />
        </mxCell>
        <mxCell id="jgSMeut3w0m6DSdT4a3m-11" style="edgeStyle=orthogonalEdgeStyle;rounded=0;orthogonalLoop=1;jettySize=auto;html=1;entryX=0.372;entryY=0.04;entryDx=0;entryDy=0;entryPerimeter=0;" edge="1" parent="1" source="jgSMeut3w0m6DSdT4a3m-4" target="jgSMeut3w0m6DSdT4a3m-5">
          <mxGeometry relative="1" as="geometry" />
        </mxCell>
        <mxCell id="jgSMeut3w0m6DSdT4a3m-12" style="edgeStyle=orthogonalEdgeStyle;rounded=0;orthogonalLoop=1;jettySize=auto;html=1;entryX=0.656;entryY=-0.01;entryDx=0;entryDy=0;entryPerimeter=0;" edge="1" parent="1" source="jgSMeut3w0m6DSdT4a3m-4" target="jgSMeut3w0m6DSdT4a3m-9">
          <mxGeometry relative="1" as="geometry" />
        </mxCell>
      </root>
    </mxGraphModel>
  </diagram>
</mxfile>
